<svg width="37" height="75" viewBox="0 0 37 75" fill="none" xmlns="http://www.w3.org/2000/svg">
<g clip-path="url(#clip0_9_53)">
<path fill-rule="evenodd" clip-rule="evenodd" d="M31.7957 45.2231V28.4225H26.8254V45.2782L31.7957 45.2231Z" fill="#484848" stroke="black"/>
<path fill-rule="evenodd" clip-rule="evenodd" d="M31.8499 19.9414V18.4291C31.8499 18.4291 30.2289 13.0267 29.2567 13.0267C28.2845 13.0268 26.8256 18.267 26.8256 18.267V19.8874L31.8499 19.9414Z" fill="#484848" stroke="black"/>
<path fill-rule="evenodd" clip-rule="evenodd" d="M31.7957 28.3679V19.8868H26.8254V28.423L31.7957 28.3679Z" fill="#484848" stroke="black"/>
<g filter="url(#filter0_f_9_53)">
<path fill-rule="evenodd" clip-rule="evenodd" d="M28.772 44.6975L27.9105 45.0577V19.191L29.0413 14.2194C29.0413 14.2194 28.772 18.4706 28.772 19.263C28.772 20.0555 28.7182 44.9136 28.772 44.6975Z" fill="#797979"/>
<path fill-rule="evenodd" clip-rule="evenodd" d="M28.772 44.6975L27.9105 45.0577V19.191L29.0413 14.2194C29.0413 14.2194 28.772 18.4706 28.772 19.263C28.772 20.0555 28.7182 44.9136 28.772 44.6975Z" stroke="#5E5E5E" stroke-width="1.15312"/>
</g>
<g filter="url(#filter1_f_9_53)">
<path fill-rule="evenodd" clip-rule="evenodd" d="M29.8763 44.6975L30.7378 45.0577V19.191L29.5532 14.2194C29.5532 14.2194 29.8763 18.4706 29.8763 19.263C29.8763 20.0555 29.9301 44.9136 29.8763 44.6975Z" fill="#797979"/>
<path fill-rule="evenodd" clip-rule="evenodd" d="M29.8763 44.6975L30.7378 45.0577V19.191L29.5532 14.2194C29.5532 14.2194 29.8763 18.4706 29.8763 19.263C29.8763 20.0555 29.9301 44.9136 29.8763 44.6975Z" stroke="#5E5E5E" stroke-width="1.15312"/>
</g>
<g filter="url(#filter2_f_9_53)">
<path fill-rule="evenodd" clip-rule="evenodd" d="M30.0588 23.1573V44.6911H28.5079V22.9413V19.268C28.5079 19.268 28.8956 14.0106 29.2058 14.0106C29.516 14.0106 29.9813 19.7721 29.9813 19.7721L30.0588 23.1573Z" fill="#CECECE"/>
<path fill-rule="evenodd" clip-rule="evenodd" d="M30.0588 23.1573V44.6911H28.5079V22.9413V19.268C28.5079 19.268 28.8956 14.0106 29.2058 14.0106C29.516 14.0106 29.9813 19.7721 29.9813 19.7721L30.0588 23.1573Z" stroke="#999999" stroke-width="1.3835"/>
</g>
<g filter="url(#filter3_f_9_53)">
<path fill-rule="evenodd" clip-rule="evenodd" d="M30.7156 44.9531V19.0772L29.9048 14.5934L30.7156 16.0519L31.6338 18.4831V45.1151L30.7156 44.9531Z" fill="#656565"/>
<path fill-rule="evenodd" clip-rule="evenodd" d="M30.7156 44.9531V19.0772L29.9048 14.5934L30.7156 16.0519L31.6338 18.4831V45.1151L30.7156 44.9531Z" stroke="#7C7C7C"/>
</g>
<g filter="url(#filter4_f_9_53)">
<path fill-rule="evenodd" clip-rule="evenodd" d="M27.7982 44.8723V18.9959L28.6084 14.5123L27.7982 15.9709L26.8795 18.4018V45.0343L27.7982 44.8723Z" fill="#656565"/>
<path fill-rule="evenodd" clip-rule="evenodd" d="M27.7982 44.8723V18.9959L28.6084 14.5123L27.7982 15.9709L26.8795 18.4018V45.0343L27.7982 44.8723Z" stroke="#7C7C7C"/>
</g>
<path fill-rule="evenodd" clip-rule="evenodd" d="M30.4448 45.2231L31.5256 47.1141H27.042L28.1763 45.2231H30.4448Z" fill="#555151" stroke="black"/>
<path fill-rule="evenodd" clip-rule="evenodd" d="M31.3096 37.1201C31.3096 37.1201 38.0751 45.2702 36.2253 45.7632C35.4151 45.9793 33.8482 45.3311 33.8482 45.3311L31.4717 43.8728" fill="#DA0101"/>
<path d="M31.3096 37.1201C31.3096 37.1201 38.0751 45.2702 36.2253 45.7632C35.4151 45.9793 33.8482 45.3311 33.8482 45.3311L31.4717 43.8728" stroke="#727272"/>
<path fill-rule="evenodd" clip-rule="evenodd" d="M27.2832 37.0983C27.2832 37.0983 20.5172 45.2483 22.367 45.7414C23.1772 45.9574 24.7441 45.3093 24.7441 45.3093L27.1212 43.8509" fill="#DA0101"/>
<path d="M27.2832 37.0983C27.2832 37.0983 20.5172 45.2483 22.367 45.7414C23.1772 45.9574 24.7441 45.3093 24.7441 45.3093L27.1212 43.8509" stroke="#727272"/>
<path fill-rule="evenodd" clip-rule="evenodd" d="M29.6347 37.2822L29.9587 44.7911C29.9587 44.7911 29.9047 45.7633 29.3106 45.7633C28.7164 45.7633 28.6624 44.7911 28.6624 44.7911L29.0945 37.2822" fill="#DA0101"/>
<path d="M29.6347 37.2822L29.9587 44.7911C29.9587 44.7911 29.9047 45.7633 29.3106 45.7633C28.7164 45.7633 28.6624 44.7911 28.6624 44.7911L29.0945 37.2822" stroke="#727272"/>
<g filter="url(#filter5_f_9_53)">
<path fill-rule="evenodd" clip-rule="evenodd" d="M31.4717 43.9269L31.3096 37.2822C31.3096 37.2822 33.2001 39.6053 33.5782 40.1995C33.9563 40.7936 32.714 44.0349 32.4439 44.0889C32.1738 44.1429 31.4717 44.0349 31.4717 43.9269Z" fill="#A60101"/>
</g>
<g filter="url(#filter6_f_9_53)">
<path fill-rule="evenodd" clip-rule="evenodd" d="M27.1314 43.8658L27.2934 37.2212C27.2934 37.2212 25.4025 39.5437 25.0244 40.1379C24.6463 40.7326 25.8886 43.9739 26.1586 44.0279C26.4287 44.0819 27.1314 43.9739 27.1314 43.8658Z" fill="#A60101"/>
</g>
<path d="M30.2695 45.3044L30.8235 47.0462" stroke="black"/>
<path d="M28.4331 45.3044L27.8117 47.0061" stroke="black"/>
<path d="M29.9454 45.3177L30.1074 46.9921" stroke="black"/>
<path d="M28.7571 45.2905L28.541 46.9248" stroke="black"/>
<path d="M29.3513 45.804L29.3379 46.8708" stroke="black"/>
<g filter="url(#filter7_f_9_53)">
<path fill-rule="evenodd" clip-rule="evenodd" d="M31.4614 47.0863C31.4614 47.0863 32.3015 50.0276 32.378 52.1287C32.4545 54.2299 29.3223 68.1711 29.3223 68.1711C29.3223 68.1711 26.0371 53.6186 26.0371 51.7469C26.0371 49.8752 27.3361 47.0483 27.3361 47.0483" fill="#E90404"/>
<path d="M31.4614 47.0863C31.4614 47.0863 32.3015 50.0276 32.378 52.1287C32.4545 54.2299 29.3223 68.1711 29.3223 68.1711C29.3223 68.1711 26.0371 53.6186 26.0371 51.7469C26.0371 49.8752 27.3361 47.0483 27.3361 47.0483" stroke="#747474"/>
</g>
<g filter="url(#filter8_f_9_53)">
<path fill-rule="evenodd" clip-rule="evenodd" d="M30.8887 47.1248C30.8887 47.1248 31.385 50.9827 31.385 51.8614C31.385 52.74 29.3603 63.8174 29.3603 63.8174C29.3603 63.8174 26.9159 52.7015 26.9159 51.7469C26.9159 50.7918 27.871 47.0863 27.871 47.0863" fill="#E96804"/>
<path d="M30.8887 47.1248C30.8887 47.1248 31.385 50.9827 31.385 51.8614C31.385 52.74 29.3603 63.8174 29.3603 63.8174C29.3603 63.8174 26.9159 52.7015 26.9159 51.7469C26.9159 50.7918 27.871 47.0863 27.871 47.0863" stroke="#747474"/>
</g>
<g filter="url(#filter9_f_9_53)">
<path fill-rule="evenodd" clip-rule="evenodd" d="M29.8952 47.0863C29.8952 47.0863 30.5064 50.9827 30.392 51.7469C30.2775 52.5106 29.3604 59.9975 29.3604 59.9975C29.3604 59.9975 27.6416 52.2432 27.756 51.6319C27.871 51.0212 28.6347 47.1248 28.6347 47.1248" fill="#E9B204"/>
<path d="M29.8952 47.0863C29.8952 47.0863 30.5064 50.9827 30.392 51.7469C30.2775 52.5106 29.3604 59.9975 29.3604 59.9975C29.3604 59.9975 27.6416 52.2432 27.756 51.6319C27.871 51.0212 28.6347 47.1248 28.6347 47.1248" stroke="#747474"/>
</g>
<g filter="url(#filter10_f_9_53)">
<path fill-rule="evenodd" clip-rule="evenodd" d="M29.4368 47.1248C29.4368 47.1248 29.6277 51.0972 29.6277 51.2886C29.6277 51.4795 29.3223 53.886 29.3223 53.886C29.3223 53.886 28.7496 51.7084 28.7496 51.441C28.7496 51.1736 29.1314 47.0863 29.1314 47.0863" fill="#E9E204"/>
<path d="M29.4368 47.1248C29.4368 47.1248 29.6277 51.0972 29.6277 51.2886C29.6277 51.4795 29.3223 53.886 29.3223 53.886C29.3223 53.886 28.7496 51.7084 28.7496 51.441C28.7496 51.1736 29.1314 47.0863 29.1314 47.0863" stroke="#747474"/>
</g>
</g>
<path fill-rule="evenodd" clip-rule="evenodd" d="M17.2766 45.2231V28.4225H12.3064V45.2782L17.2766 45.2231Z" fill="#484848" stroke="black"/>
<path fill-rule="evenodd" clip-rule="evenodd" d="M17.3306 19.9414V18.4291C17.3306 18.4291 15.7096 13.0267 14.7374 13.0267C13.7652 13.0268 12.3063 18.267 12.3063 18.267V19.8874L17.3306 19.9414Z" fill="#484848" stroke="black"/>
<path fill-rule="evenodd" clip-rule="evenodd" d="M17.2766 28.3679V19.8868H12.3064V28.423L17.2766 28.3679Z" fill="#484848" stroke="black"/>
<g filter="url(#filter11_f_9_53)">
<path fill-rule="evenodd" clip-rule="evenodd" d="M14.253 44.6974L13.3914 45.0576V19.1909L14.5222 14.2192C14.5222 14.2192 14.253 18.4704 14.253 19.2629C14.253 20.0554 14.1991 44.9135 14.253 44.6974Z" fill="#797979"/>
<path fill-rule="evenodd" clip-rule="evenodd" d="M14.253 44.6974L13.3914 45.0576V19.1909L14.5222 14.2192C14.5222 14.2192 14.253 18.4704 14.253 19.2629C14.253 20.0554 14.1991 44.9135 14.253 44.6974Z" stroke="#5E5E5E" stroke-width="1.15312"/>
</g>
<g filter="url(#filter12_f_9_53)">
<path fill-rule="evenodd" clip-rule="evenodd" d="M15.3572 44.6974L16.2188 45.0576V19.1909L15.0341 14.2192C15.0341 14.2192 15.3572 18.4704 15.3572 19.2629C15.3572 20.0554 15.4111 44.9135 15.3572 44.6974Z" fill="#797979"/>
<path fill-rule="evenodd" clip-rule="evenodd" d="M15.3572 44.6974L16.2188 45.0576V19.1909L15.0341 14.2192C15.0341 14.2192 15.3572 18.4704 15.3572 19.2629C15.3572 20.0554 15.4111 44.9135 15.3572 44.6974Z" stroke="#5E5E5E" stroke-width="1.15312"/>
</g>
<g filter="url(#filter13_f_9_53)">
<path fill-rule="evenodd" clip-rule="evenodd" d="M15.5396 23.1572V44.6909H13.9886V22.9411V19.2679C13.9886 19.2679 14.3764 14.0105 14.6865 14.0105C14.9967 14.0105 15.462 19.772 15.462 19.772L15.5396 23.1572Z" fill="#CECECE"/>
<path fill-rule="evenodd" clip-rule="evenodd" d="M15.5396 23.1572V44.6909H13.9886V22.9411V19.2679C13.9886 19.2679 14.3764 14.0105 14.6865 14.0105C14.9967 14.0105 15.462 19.772 15.462 19.772L15.5396 23.1572Z" stroke="#999999" stroke-width="1.3835"/>
</g>
<g filter="url(#filter14_f_9_53)">
<path fill-rule="evenodd" clip-rule="evenodd" d="M16.1963 44.9531V19.0772L15.3856 14.5934L16.1963 16.0519L17.1145 18.4831V45.1151L16.1963 44.9531Z" fill="#656565"/>
<path fill-rule="evenodd" clip-rule="evenodd" d="M16.1963 44.9531V19.0772L15.3856 14.5934L16.1963 16.0519L17.1145 18.4831V45.1151L16.1963 44.9531Z" stroke="#7C7C7C"/>
</g>
<g filter="url(#filter15_f_9_53)">
<path fill-rule="evenodd" clip-rule="evenodd" d="M13.2792 44.8723V18.9959L14.0894 14.5123L13.2792 15.9709L12.3604 18.4018V45.0343L13.2792 44.8723Z" fill="#656565"/>
<path fill-rule="evenodd" clip-rule="evenodd" d="M13.2792 44.8723V18.9959L14.0894 14.5123L13.2792 15.9709L12.3604 18.4018V45.0343L13.2792 44.8723Z" stroke="#7C7C7C"/>
</g>
<path fill-rule="evenodd" clip-rule="evenodd" d="M15.9258 45.2231L17.0066 47.1141H12.523L13.6573 45.2231H15.9258Z" fill="#555151" stroke="black"/>
<path fill-rule="evenodd" clip-rule="evenodd" d="M16.7906 37.1201C16.7906 37.1201 23.5561 45.2702 21.7063 45.7632C20.8961 45.9793 19.3292 45.3311 19.3292 45.3311L16.9526 43.8728" fill="#DA0101"/>
<path d="M16.7906 37.1201C16.7906 37.1201 23.5561 45.2702 21.7063 45.7632C20.8961 45.9793 19.3292 45.3311 19.3292 45.3311L16.9526 43.8728" stroke="#727272"/>
<path fill-rule="evenodd" clip-rule="evenodd" d="M12.7642 37.0981C12.7642 37.0981 5.99813 45.2482 7.84793 45.7413C8.65812 45.9573 10.225 45.3092 10.225 45.3092L12.6021 43.8508" fill="#DA0101"/>
<path d="M12.7642 37.0981C12.7642 37.0981 5.99813 45.2482 7.84793 45.7413C8.65812 45.9573 10.225 45.3092 10.225 45.3092L12.6021 43.8508" stroke="#727272"/>
<path fill-rule="evenodd" clip-rule="evenodd" d="M15.1156 37.2821L15.4397 44.7909C15.4397 44.7909 15.3857 45.7632 14.7915 45.7632C14.1974 45.7632 14.1434 44.7909 14.1434 44.7909L14.5755 37.2821" fill="#DA0101"/>
<path d="M15.1156 37.2821L15.4397 44.7909C15.4397 44.7909 15.3857 45.7632 14.7915 45.7632C14.1974 45.7632 14.1434 44.7909 14.1434 44.7909L14.5755 37.2821" stroke="#727272"/>
<g filter="url(#filter16_f_9_53)">
<path fill-rule="evenodd" clip-rule="evenodd" d="M16.9524 43.9267L16.7904 37.2821C16.7904 37.2821 18.6808 39.6052 19.0589 40.1993C19.437 40.7935 18.1947 44.0348 17.9246 44.0888C17.6546 44.1428 16.9524 44.0348 16.9524 43.9267Z" fill="#A60101"/>
</g>
<g filter="url(#filter17_f_9_53)">
<path fill-rule="evenodd" clip-rule="evenodd" d="M12.6124 43.8658L12.7744 37.2212C12.7744 37.2212 10.8834 39.5437 10.5053 40.1379C10.1272 40.7326 11.3695 43.9739 11.6396 44.0279C11.9097 44.0819 12.6124 43.9739 12.6124 43.8658Z" fill="#A60101"/>
</g>
<path d="M15.7504 45.3043L16.3044 47.0461" stroke="black"/>
<path d="M13.9141 45.3043L13.2926 47.006" stroke="black"/>
<path d="M15.4263 45.3177L15.5884 46.9921" stroke="black"/>
<path d="M14.238 45.2905L14.022 46.9248" stroke="black"/>
<path d="M14.832 45.8038L14.8187 46.8707" stroke="black"/>
<g filter="url(#filter18_f_9_53)">
<path fill-rule="evenodd" clip-rule="evenodd" d="M16.9424 47.0863C16.9424 47.0863 17.7825 50.0276 17.859 52.1287C17.9354 54.2299 14.8032 68.1711 14.8032 68.1711C14.8032 68.1711 11.5181 53.6186 11.5181 51.7469C11.5181 49.8752 12.8171 47.0483 12.8171 47.0483" fill="#E90404"/>
<path d="M16.9424 47.0863C16.9424 47.0863 17.7825 50.0276 17.859 52.1287C17.9354 54.2299 14.8032 68.1711 14.8032 68.1711C14.8032 68.1711 11.5181 53.6186 11.5181 51.7469C11.5181 49.8752 12.8171 47.0483 12.8171 47.0483" stroke="#747474"/>
</g>
<g filter="url(#filter19_f_9_53)">
<path fill-rule="evenodd" clip-rule="evenodd" d="M16.3697 47.1248C16.3697 47.1248 16.866 50.9827 16.866 51.8614C16.866 52.74 14.8413 63.8174 14.8413 63.8174C14.8413 63.8174 12.3968 52.7015 12.3968 51.7469C12.3968 50.7918 13.3519 47.0863 13.3519 47.0863" fill="#E96804"/>
<path d="M16.3697 47.1248C16.3697 47.1248 16.866 50.9827 16.866 51.8614C16.866 52.74 14.8413 63.8174 14.8413 63.8174C14.8413 63.8174 12.3968 52.7015 12.3968 51.7469C12.3968 50.7918 13.3519 47.0863 13.3519 47.0863" stroke="#747474"/>
</g>
<g filter="url(#filter20_f_9_53)">
<path fill-rule="evenodd" clip-rule="evenodd" d="M15.3761 47.0863C15.3761 47.0863 15.9874 50.9827 15.8729 51.7469C15.7585 52.5106 14.8413 59.9975 14.8413 59.9975C14.8413 59.9975 13.1226 52.2432 13.237 51.6319C13.352 51.0212 14.1156 47.1248 14.1156 47.1248" fill="#E9B204"/>
<path d="M15.3761 47.0863C15.3761 47.0863 15.9874 50.9827 15.8729 51.7469C15.7585 52.5106 14.8413 59.9975 14.8413 59.9975C14.8413 59.9975 13.1226 52.2432 13.237 51.6319C13.352 51.0212 14.1156 47.1248 14.1156 47.1248" stroke="#747474"/>
</g>
<g filter="url(#filter21_f_9_53)">
<path fill-rule="evenodd" clip-rule="evenodd" d="M14.9177 47.1248C14.9177 47.1248 15.1086 51.0972 15.1086 51.2886C15.1086 51.4795 14.8033 53.886 14.8033 53.886C14.8033 53.886 14.2305 51.7084 14.2305 51.441C14.2305 51.1736 14.6124 47.0863 14.6124 47.0863" fill="#E9E204"/>
<path d="M14.9177 47.1248C14.9177 47.1248 15.1086 51.0972 15.1086 51.2886C15.1086 51.4795 14.8033 53.886 14.8033 53.886C14.8033 53.886 14.2305 51.7084 14.2305 51.441C14.2305 51.1736 14.6124 47.0863 14.6124 47.0863" stroke="#747474"/>
</g>
<defs>
<filter id="filter0_f_9_53" x="17.0316" y="3.78908" width="22.8874" height="52.437" filterUnits="userSpaceOnUse" color-interpolation-filters="sRGB">
<feFlood flood-opacity="0" result="BackgroundImageFix"/>
<feBlend mode="normal" in="SourceGraphic" in2="BackgroundImageFix" result="shape"/>
<feGaussianBlur stdDeviation="5.15118" result="effect1_foregroundBlur_9_53"/>
</filter>
<filter id="filter1_f_9_53" x="18.6759" y="3.78334" width="22.9409" height="52.4427" filterUnits="userSpaceOnUse" color-interpolation-filters="sRGB">
<feFlood flood-opacity="0" result="BackgroundImageFix"/>
<feBlend mode="normal" in="SourceGraphic" in2="BackgroundImageFix" result="shape"/>
<feGaussianBlur stdDeviation="5.15118" result="effect1_foregroundBlur_9_53"/>
</filter>
<filter id="filter2_f_9_53" x="15.4555" y="0.958225" width="27.6556" height="56.7852" filterUnits="userSpaceOnUse" color-interpolation-filters="sRGB">
<feFlood flood-opacity="0" result="BackgroundImageFix"/>
<feBlend mode="normal" in="SourceGraphic" in2="BackgroundImageFix" result="shape"/>
<feGaussianBlur stdDeviation="6.18031" result="effect1_foregroundBlur_9_53"/>
</filter>
<filter id="filter3_f_9_53" x="18.63" y="3.56762" width="24.2866" height="52.9263" filterUnits="userSpaceOnUse" color-interpolation-filters="sRGB">
<feFlood flood-opacity="0" result="BackgroundImageFix"/>
<feBlend mode="normal" in="SourceGraphic" in2="BackgroundImageFix" result="shape"/>
<feGaussianBlur stdDeviation="5.39142" result="effect1_foregroundBlur_9_53"/>
</filter>
<filter id="filter4_f_9_53" x="15.5966" y="3.48669" width="24.2866" height="52.9264" filterUnits="userSpaceOnUse" color-interpolation-filters="sRGB">
<feFlood flood-opacity="0" result="BackgroundImageFix"/>
<feBlend mode="normal" in="SourceGraphic" in2="BackgroundImageFix" result="shape"/>
<feGaussianBlur stdDeviation="5.39142" result="effect1_foregroundBlur_9_53"/>
</filter>
<filter id="filter5_f_9_53" x="21.2125" y="27.1852" width="22.5338" height="27.0152" filterUnits="userSpaceOnUse" color-interpolation-filters="sRGB">
<feFlood flood-opacity="0" result="BackgroundImageFix"/>
<feBlend mode="normal" in="SourceGraphic" in2="BackgroundImageFix" result="shape"/>
<feGaussianBlur stdDeviation="5.04854" result="effect1_foregroundBlur_9_53"/>
</filter>
<filter id="filter6_f_9_53" x="14.8563" y="27.1241" width="22.5342" height="27.0152" filterUnits="userSpaceOnUse" color-interpolation-filters="sRGB">
<feFlood flood-opacity="0" result="BackgroundImageFix"/>
<feBlend mode="normal" in="SourceGraphic" in2="BackgroundImageFix" result="shape"/>
<feGaussianBlur stdDeviation="5.04854" result="effect1_foregroundBlur_9_53"/>
</filter>
<filter id="filter7_f_9_53" x="19.2493" y="40.552" width="19.9178" height="34.0169" filterUnits="userSpaceOnUse" color-interpolation-filters="sRGB">
<feFlood flood-opacity="0" result="BackgroundImageFix"/>
<feBlend mode="normal" in="SourceGraphic" in2="BackgroundImageFix" result="shape"/>
<feGaussianBlur stdDeviation="3.14388" result="effect1_foregroundBlur_9_53"/>
</filter>
<filter id="filter8_f_9_53" x="20.128" y="40.6738" width="18.0448" height="29.5388" filterUnits="userSpaceOnUse" color-interpolation-filters="sRGB">
<feFlood flood-opacity="0" result="BackgroundImageFix"/>
<feBlend mode="normal" in="SourceGraphic" in2="BackgroundImageFix" result="shape"/>
<feGaussianBlur stdDeviation="3.14388" result="effect1_foregroundBlur_9_53"/>
</filter>
<filter id="filter9_f_9_53" x="20.9627" y="40.7211" width="16.2311" height="25.6723" filterUnits="userSpaceOnUse" color-interpolation-filters="sRGB">
<feFlood flood-opacity="0" result="BackgroundImageFix"/>
<feBlend mode="normal" in="SourceGraphic" in2="BackgroundImageFix" result="shape"/>
<feGaussianBlur stdDeviation="3.14388" result="effect1_foregroundBlur_9_53"/>
</filter>
<filter id="filter10_f_9_53" x="21.9617" y="40.752" width="14.4537" height="19.5489" filterUnits="userSpaceOnUse" color-interpolation-filters="sRGB">
<feFlood flood-opacity="0" result="BackgroundImageFix"/>
<feBlend mode="normal" in="SourceGraphic" in2="BackgroundImageFix" result="shape"/>
<feGaussianBlur stdDeviation="3.14388" result="effect1_foregroundBlur_9_53"/>
</filter>
<filter id="filter11_f_9_53" x="2.51259" y="3.78896" width="22.8874" height="52.437" filterUnits="userSpaceOnUse" color-interpolation-filters="sRGB">
<feFlood flood-opacity="0" result="BackgroundImageFix"/>
<feBlend mode="normal" in="SourceGraphic" in2="BackgroundImageFix" result="shape"/>
<feGaussianBlur stdDeviation="5.15118" result="effect1_foregroundBlur_9_53"/>
</filter>
<filter id="filter12_f_9_53" x="4.15688" y="3.78322" width="22.9409" height="52.4427" filterUnits="userSpaceOnUse" color-interpolation-filters="sRGB">
<feFlood flood-opacity="0" result="BackgroundImageFix"/>
<feBlend mode="normal" in="SourceGraphic" in2="BackgroundImageFix" result="shape"/>
<feGaussianBlur stdDeviation="5.15118" result="effect1_foregroundBlur_9_53"/>
</filter>
<filter id="filter13_f_9_53" x="0.936253" y="0.958103" width="27.6556" height="56.7852" filterUnits="userSpaceOnUse" color-interpolation-filters="sRGB">
<feFlood flood-opacity="0" result="BackgroundImageFix"/>
<feBlend mode="normal" in="SourceGraphic" in2="BackgroundImageFix" result="shape"/>
<feGaussianBlur stdDeviation="6.18031" result="effect1_foregroundBlur_9_53"/>
</filter>
<filter id="filter14_f_9_53" x="4.11071" y="3.56762" width="24.2866" height="52.9263" filterUnits="userSpaceOnUse" color-interpolation-filters="sRGB">
<feFlood flood-opacity="0" result="BackgroundImageFix"/>
<feBlend mode="normal" in="SourceGraphic" in2="BackgroundImageFix" result="shape"/>
<feGaussianBlur stdDeviation="5.39142" result="effect1_foregroundBlur_9_53"/>
</filter>
<filter id="filter15_f_9_53" x="1.07751" y="3.48669" width="24.2866" height="52.9264" filterUnits="userSpaceOnUse" color-interpolation-filters="sRGB">
<feFlood flood-opacity="0" result="BackgroundImageFix"/>
<feBlend mode="normal" in="SourceGraphic" in2="BackgroundImageFix" result="shape"/>
<feGaussianBlur stdDeviation="5.39142" result="effect1_foregroundBlur_9_53"/>
</filter>
<filter id="filter16_f_9_53" x="6.69321" y="27.185" width="22.5338" height="27.0152" filterUnits="userSpaceOnUse" color-interpolation-filters="sRGB">
<feFlood flood-opacity="0" result="BackgroundImageFix"/>
<feBlend mode="normal" in="SourceGraphic" in2="BackgroundImageFix" result="shape"/>
<feGaussianBlur stdDeviation="5.04854" result="effect1_foregroundBlur_9_53"/>
</filter>
<filter id="filter17_f_9_53" x="0.337251" y="27.1241" width="22.5342" height="27.0152" filterUnits="userSpaceOnUse" color-interpolation-filters="sRGB">
<feFlood flood-opacity="0" result="BackgroundImageFix"/>
<feBlend mode="normal" in="SourceGraphic" in2="BackgroundImageFix" result="shape"/>
<feGaussianBlur stdDeviation="5.04854" result="effect1_foregroundBlur_9_53"/>
</filter>
<filter id="filter18_f_9_53" x="4.7303" y="40.552" width="19.9178" height="34.0169" filterUnits="userSpaceOnUse" color-interpolation-filters="sRGB">
<feFlood flood-opacity="0" result="BackgroundImageFix"/>
<feBlend mode="normal" in="SourceGraphic" in2="BackgroundImageFix" result="shape"/>
<feGaussianBlur stdDeviation="3.14388" result="effect1_foregroundBlur_9_53"/>
</filter>
<filter id="filter19_f_9_53" x="5.60896" y="40.6738" width="18.0448" height="29.5388" filterUnits="userSpaceOnUse" color-interpolation-filters="sRGB">
<feFlood flood-opacity="0" result="BackgroundImageFix"/>
<feBlend mode="normal" in="SourceGraphic" in2="BackgroundImageFix" result="shape"/>
<feGaussianBlur stdDeviation="3.14388" result="effect1_foregroundBlur_9_53"/>
</filter>
<filter id="filter20_f_9_53" x="6.44368" y="40.7211" width="16.2311" height="25.6723" filterUnits="userSpaceOnUse" color-interpolation-filters="sRGB">
<feFlood flood-opacity="0" result="BackgroundImageFix"/>
<feBlend mode="normal" in="SourceGraphic" in2="BackgroundImageFix" result="shape"/>
<feGaussianBlur stdDeviation="3.14388" result="effect1_foregroundBlur_9_53"/>
</filter>
<filter id="filter21_f_9_53" x="7.4427" y="40.752" width="14.4537" height="19.5489" filterUnits="userSpaceOnUse" color-interpolation-filters="sRGB">
<feFlood flood-opacity="0" result="BackgroundImageFix"/>
<feBlend mode="normal" in="SourceGraphic" in2="BackgroundImageFix" result="shape"/>
<feGaussianBlur stdDeviation="3.14388" result="effect1_foregroundBlur_9_53"/>
</filter>
<clipPath id="clip0_9_53">
<rect width="14.5524" height="55.2" fill="white" transform="matrix(-1 0 0 1 36.5725 13)"/>
</clipPath>
</defs>
</svg>
